<mxfile host="app.diagrams.net" agent="Mozilla/5.0 (Windows NT 10.0; Win64; x64) AppleWebKit/537.36 (KHTML, like Gecko) Chrome/130.0.0.0 Safari/537.36" version="24.8.4">
  <diagram id="kV8xi881xglAY8DfMssn" name="Pagina-1">
    <mxGraphModel dx="1909" dy="1136" grid="1" gridSize="10" guides="1" tooltips="1" connect="1" arrows="1" fold="1" page="1" pageScale="1" pageWidth="2339" pageHeight="3300" math="0" shadow="0">
      <root>
        <mxCell id="0" />
        <mxCell id="1" parent="0" />
        <mxCell id="q-ImUXXQkRXJTkuQvpad-10" value="" style="endArrow=ERoneToMany;html=1;rounded=0;exitX=1.018;exitY=0;exitDx=0;exitDy=0;entryX=0;entryY=0.5;entryDx=0;entryDy=0;exitPerimeter=0;endFill=0;startSize=12;endSize=12;startArrow=ERmandOne;startFill=0;" parent="1" source="IU0FdeUJs4AJ9rIBLfSX-4" edge="1">
          <mxGeometry width="50" height="50" relative="1" as="geometry">
            <mxPoint x="220" y="470" as="sourcePoint" />
            <mxPoint x="490" y="470" as="targetPoint" />
          </mxGeometry>
        </mxCell>
        <mxCell id="q-ImUXXQkRXJTkuQvpad-21" value="" style="endArrow=ERoneToMany;html=1;rounded=0;entryX=0.5;entryY=1;entryDx=0;entryDy=0;exitX=0.587;exitY=0.031;exitDx=0;exitDy=0;exitPerimeter=0;endSize=12;startSize=12;endFill=0;startArrow=ERmandOne;startFill=0;" parent="1" source="IU0FdeUJs4AJ9rIBLfSX-6" edge="1">
          <mxGeometry width="50" height="50" relative="1" as="geometry">
            <mxPoint x="575" y="320" as="sourcePoint" />
            <mxPoint x="570" y="270" as="targetPoint" />
          </mxGeometry>
        </mxCell>
        <mxCell id="q-ImUXXQkRXJTkuQvpad-34" value="" style="endArrow=ERoneToMany;html=1;rounded=0;entryX=0.5;entryY=1;entryDx=0;entryDy=0;endFill=0;endSize=12;" parent="1" edge="1">
          <mxGeometry width="50" height="50" relative="1" as="geometry">
            <mxPoint x="160" y="720" as="sourcePoint" />
            <mxPoint x="160" y="500" as="targetPoint" />
          </mxGeometry>
        </mxCell>
        <mxCell id="q-ImUXXQkRXJTkuQvpad-42" value="" style="endArrow=ERoneToMany;html=1;rounded=0;entryX=0;entryY=0.5;entryDx=0;entryDy=0;endFill=0;endSize=12;" parent="1" edge="1">
          <mxGeometry width="50" height="50" relative="1" as="geometry">
            <mxPoint x="160" y="720" as="sourcePoint" />
            <mxPoint x="467.5" y="720" as="targetPoint" />
          </mxGeometry>
        </mxCell>
        <mxCell id="q-ImUXXQkRXJTkuQvpad-45" value="" style="endArrow=ERoneToMany;html=1;rounded=0;entryX=0.403;entryY=1.086;entryDx=0;entryDy=0;entryPerimeter=0;endFill=0;startArrow=ERmandOne;startFill=0;endSize=12;startSize=12;" parent="1" target="IU0FdeUJs4AJ9rIBLfSX-8" edge="1">
          <mxGeometry width="50" height="50" relative="1" as="geometry">
            <mxPoint x="547.5" y="690" as="sourcePoint" />
            <mxPoint x="547.5" y="600" as="targetPoint" />
          </mxGeometry>
        </mxCell>
        <mxCell id="q-ImUXXQkRXJTkuQvpad-72" value="" style="endArrow=ERmandOne;html=1;rounded=0;entryX=0.42;entryY=1.054;entryDx=0;entryDy=0;exitX=0.5;exitY=0;exitDx=0;exitDy=0;entryPerimeter=0;startArrow=ERoneToMany;startFill=0;endFill=0;endSize=12;startSize=12;" parent="1" target="IU0FdeUJs4AJ9rIBLfSX-21" edge="1">
          <mxGeometry width="50" height="50" relative="1" as="geometry">
            <mxPoint x="527.5" y="1030" as="sourcePoint" />
            <mxPoint x="527.5" y="970" as="targetPoint" />
          </mxGeometry>
        </mxCell>
        <mxCell id="q-ImUXXQkRXJTkuQvpad-82" style="edgeStyle=orthogonalEdgeStyle;rounded=0;orthogonalLoop=1;jettySize=auto;html=1;endArrow=none;endFill=0;exitX=1.019;exitY=0.057;exitDx=0;exitDy=0;startArrow=ERoneToMany;startFill=0;exitPerimeter=0;endSize=12;startSize=12;" parent="1" source="IU0FdeUJs4AJ9rIBLfSX-40" edge="1">
          <mxGeometry relative="1" as="geometry">
            <mxPoint x="910" y="470" as="targetPoint" />
            <mxPoint x="587.5" y="1060" as="sourcePoint" />
          </mxGeometry>
        </mxCell>
        <mxCell id="q-ImUXXQkRXJTkuQvpad-84" value="" style="endArrow=none;html=1;rounded=0;exitX=0.995;exitY=0.277;exitDx=0;exitDy=0;exitPerimeter=0;startArrow=ERzeroToMany;startFill=0;endSize=12;startSize=12;" parent="1" source="IU0FdeUJs4AJ9rIBLfSX-7" edge="1">
          <mxGeometry width="50" height="50" relative="1" as="geometry">
            <mxPoint x="790" y="470" as="sourcePoint" />
            <mxPoint x="910" y="470" as="targetPoint" />
          </mxGeometry>
        </mxCell>
        <mxCell id="q-ImUXXQkRXJTkuQvpad-85" value="(0,N)" style="text;html=1;align=center;verticalAlign=middle;resizable=0;points=[];autosize=1;strokeColor=none;fillColor=none;" parent="1" vertex="1">
          <mxGeometry x="592.5" y="1018" width="50" height="30" as="geometry" />
        </mxCell>
        <mxCell id="q-ImUXXQkRXJTkuQvpad-86" value="(1,N)" style="text;html=1;align=center;verticalAlign=middle;resizable=0;points=[];autosize=1;strokeColor=none;fillColor=none;" parent="1" vertex="1">
          <mxGeometry x="797.5" y="1018" width="50" height="30" as="geometry" />
        </mxCell>
        <mxCell id="IU0FdeUJs4AJ9rIBLfSX-1" value="GIORNATA" style="swimlane;fontStyle=0;childLayout=stackLayout;horizontal=1;startSize=30;horizontalStack=0;resizeParent=1;resizeParentMax=0;resizeLast=0;collapsible=1;marginBottom=0;whiteSpace=wrap;html=1;" vertex="1" parent="1">
          <mxGeometry x="87.5" y="380" width="140" height="120" as="geometry" />
        </mxCell>
        <mxCell id="IU0FdeUJs4AJ9rIBLfSX-2" value="&lt;b&gt;Numero PK&lt;/b&gt;" style="text;strokeColor=none;fillColor=none;align=left;verticalAlign=middle;spacingLeft=4;spacingRight=4;overflow=hidden;points=[[0,0.5],[1,0.5]];portConstraint=eastwest;rotatable=0;whiteSpace=wrap;html=1;" vertex="1" parent="IU0FdeUJs4AJ9rIBLfSX-1">
          <mxGeometry y="30" width="140" height="30" as="geometry" />
        </mxCell>
        <mxCell id="IU0FdeUJs4AJ9rIBLfSX-3" value="&lt;b&gt;Girone PK&lt;/b&gt;" style="text;strokeColor=none;fillColor=none;align=left;verticalAlign=middle;spacingLeft=4;spacingRight=4;overflow=hidden;points=[[0,0.5],[1,0.5]];portConstraint=eastwest;rotatable=0;whiteSpace=wrap;html=1;" vertex="1" parent="IU0FdeUJs4AJ9rIBLfSX-1">
          <mxGeometry y="60" width="140" height="30" as="geometry" />
        </mxCell>
        <mxCell id="IU0FdeUJs4AJ9rIBLfSX-4" value="Data&amp;nbsp;" style="text;strokeColor=none;fillColor=none;align=left;verticalAlign=middle;spacingLeft=4;spacingRight=4;overflow=hidden;points=[[0,0.5],[1,0.5]];portConstraint=eastwest;rotatable=0;whiteSpace=wrap;html=1;" vertex="1" parent="IU0FdeUJs4AJ9rIBLfSX-1">
          <mxGeometry y="90" width="140" height="30" as="geometry" />
        </mxCell>
        <mxCell id="IU0FdeUJs4AJ9rIBLfSX-5" value="COLLOCAZIONE" style="text;html=1;align=center;verticalAlign=middle;resizable=0;points=[];autosize=1;strokeColor=none;fillColor=none;" vertex="1" parent="1">
          <mxGeometry x="300" y="440" width="120" height="30" as="geometry" />
        </mxCell>
        <mxCell id="IU0FdeUJs4AJ9rIBLfSX-6" value="PARTITA" style="swimlane;fontStyle=0;childLayout=stackLayout;horizontal=1;startSize=30;horizontalStack=0;resizeParent=1;resizeParentMax=0;resizeLast=0;collapsible=1;marginBottom=0;whiteSpace=wrap;html=1;" vertex="1" parent="1">
          <mxGeometry x="490" y="430" width="140" height="90" as="geometry" />
        </mxCell>
        <mxCell id="IU0FdeUJs4AJ9rIBLfSX-7" value="Risultato" style="text;strokeColor=none;fillColor=none;align=left;verticalAlign=middle;spacingLeft=4;spacingRight=4;overflow=hidden;points=[[0,0.5],[1,0.5]];portConstraint=eastwest;rotatable=0;whiteSpace=wrap;html=1;" vertex="1" parent="IU0FdeUJs4AJ9rIBLfSX-6">
          <mxGeometry y="30" width="140" height="30" as="geometry" />
        </mxCell>
        <mxCell id="IU0FdeUJs4AJ9rIBLfSX-8" value="&lt;b&gt;Numero PK&lt;/b&gt;" style="text;strokeColor=none;fillColor=none;align=left;verticalAlign=middle;spacingLeft=4;spacingRight=4;overflow=hidden;points=[[0,0.5],[1,0.5]];portConstraint=eastwest;rotatable=0;whiteSpace=wrap;html=1;" vertex="1" parent="IU0FdeUJs4AJ9rIBLfSX-6">
          <mxGeometry y="60" width="140" height="30" as="geometry" />
        </mxCell>
        <mxCell id="IU0FdeUJs4AJ9rIBLfSX-10" value="ARBITRAGGIO" style="text;html=1;align=center;verticalAlign=middle;resizable=0;points=[];autosize=1;strokeColor=none;fillColor=none;" vertex="1" parent="1">
          <mxGeometry x="567.5" y="340" width="110" height="30" as="geometry" />
        </mxCell>
        <mxCell id="IU0FdeUJs4AJ9rIBLfSX-11" value="ARBITRO" style="swimlane;fontStyle=0;childLayout=stackLayout;horizontal=1;startSize=30;horizontalStack=0;resizeParent=1;resizeParentMax=0;resizeLast=0;collapsible=1;marginBottom=0;whiteSpace=wrap;html=1;" vertex="1" parent="1">
          <mxGeometry x="497.5" y="150" width="140" height="120" as="geometry" />
        </mxCell>
        <mxCell id="IU0FdeUJs4AJ9rIBLfSX-12" value="&lt;b&gt;Cognome PK&lt;/b&gt;" style="text;strokeColor=none;fillColor=none;align=left;verticalAlign=middle;spacingLeft=4;spacingRight=4;overflow=hidden;points=[[0,0.5],[1,0.5]];portConstraint=eastwest;rotatable=0;whiteSpace=wrap;html=1;" vertex="1" parent="IU0FdeUJs4AJ9rIBLfSX-11">
          <mxGeometry y="30" width="140" height="30" as="geometry" />
        </mxCell>
        <mxCell id="IU0FdeUJs4AJ9rIBLfSX-13" value="Nome" style="text;strokeColor=none;fillColor=none;align=left;verticalAlign=middle;spacingLeft=4;spacingRight=4;overflow=hidden;points=[[0,0.5],[1,0.5]];portConstraint=eastwest;rotatable=0;whiteSpace=wrap;html=1;" vertex="1" parent="IU0FdeUJs4AJ9rIBLfSX-11">
          <mxGeometry y="60" width="140" height="30" as="geometry" />
        </mxCell>
        <mxCell id="IU0FdeUJs4AJ9rIBLfSX-14" value="Residenza" style="text;strokeColor=none;fillColor=none;align=left;verticalAlign=middle;spacingLeft=4;spacingRight=4;overflow=hidden;points=[[0,0.5],[1,0.5]];portConstraint=eastwest;rotatable=0;whiteSpace=wrap;html=1;" vertex="1" parent="IU0FdeUJs4AJ9rIBLfSX-11">
          <mxGeometry y="90" width="140" height="30" as="geometry" />
        </mxCell>
        <mxCell id="IU0FdeUJs4AJ9rIBLfSX-15" value="CASA" style="text;html=1;align=center;verticalAlign=middle;resizable=0;points=[];autosize=1;strokeColor=none;fillColor=none;" vertex="1" parent="1">
          <mxGeometry x="547.5" y="588" width="60" height="30" as="geometry" />
        </mxCell>
        <mxCell id="IU0FdeUJs4AJ9rIBLfSX-16" value="OSPITE" style="text;html=1;align=center;verticalAlign=middle;resizable=0;points=[];autosize=1;strokeColor=none;fillColor=none;" vertex="1" parent="1">
          <mxGeometry x="437.5" y="610" width="70" height="30" as="geometry" />
        </mxCell>
        <mxCell id="IU0FdeUJs4AJ9rIBLfSX-17" value="" style="endArrow=ERoneToMany;html=1;rounded=0;entryX=0.403;entryY=1.086;entryDx=0;entryDy=0;entryPerimeter=0;endFill=0;startArrow=ERmandOne;startFill=0;endSize=12;startSize=12;" edge="1" parent="1">
          <mxGeometry width="50" height="50" relative="1" as="geometry">
            <mxPoint x="508.25" y="690" as="sourcePoint" />
            <mxPoint x="506.75" y="523" as="targetPoint" />
          </mxGeometry>
        </mxCell>
        <mxCell id="IU0FdeUJs4AJ9rIBLfSX-18" value="SQUADRA" style="swimlane;fontStyle=0;childLayout=stackLayout;horizontal=1;startSize=40;horizontalStack=0;resizeParent=1;resizeParentMax=0;resizeLast=0;collapsible=1;marginBottom=0;whiteSpace=wrap;html=1;" vertex="1" parent="1">
          <mxGeometry x="467.5" y="690" width="140" height="160" as="geometry" />
        </mxCell>
        <mxCell id="IU0FdeUJs4AJ9rIBLfSX-19" value="Allenatore" style="text;strokeColor=none;fillColor=none;align=left;verticalAlign=middle;spacingLeft=4;spacingRight=4;overflow=hidden;points=[[0,0.5],[1,0.5]];portConstraint=eastwest;rotatable=0;whiteSpace=wrap;html=1;" vertex="1" parent="IU0FdeUJs4AJ9rIBLfSX-18">
          <mxGeometry y="40" width="140" height="30" as="geometry" />
        </mxCell>
        <mxCell id="IU0FdeUJs4AJ9rIBLfSX-20" value="Membri" style="text;strokeColor=none;fillColor=none;align=left;verticalAlign=middle;spacingLeft=4;spacingRight=4;overflow=hidden;points=[[0,0.5],[1,0.5]];portConstraint=eastwest;rotatable=0;whiteSpace=wrap;html=1;" vertex="1" parent="IU0FdeUJs4AJ9rIBLfSX-18">
          <mxGeometry y="70" width="140" height="30" as="geometry" />
        </mxCell>
        <mxCell id="IU0FdeUJs4AJ9rIBLfSX-25" value="Nome&lt;span style=&quot;color: rgba(0, 0, 0, 0); font-family: monospace; font-size: 0px; text-wrap-mode: nowrap;&quot;&gt;%3CmxGraphModel%3E%3Croot%3E%3CmxCell%20id%3D%220%22%2F%3E%3CmxCell%20id%3D%221%22%20parent%3D%220%22%2F%3E%3CmxCell%20id%3D%222%22%20value%3D%22%22%20style%3D%22endArrow%3DERoneToMany%3Bhtml%3D1%3Brounded%3D0%3BentryX%3D0.403%3BentryY%3D1.086%3BentryDx%3D0%3BentryDy%3D0%3BentryPerimeter%3D0%3BendFill%3D0%3BstartArrow%3DERmandOne%3BstartFill%3D0%3BendSize%3D12%3BstartSize%3D12%3B%22%20edge%3D%221%22%20parent%3D%221%22%3E%3CmxGeometry%20width%3D%2250%22%20height%3D%2250%22%20relative%3D%221%22%20as%3D%22geometry%22%3E%3CmxPoint%20x%3D%22547.5%22%20y%3D%22690%22%20as%3D%22sourcePoint%22%2F%3E%3CmxPoint%20x%3D%22546%22%20y%3D%22523%22%20as%3D%22targetPoint%22%2F%3E%3C%2FmxGeometry%3E%3C%2FmxCell%3E%3C%2Froot%3E%3C%2FmxGraphModel%3E&lt;/span&gt;" style="text;strokeColor=none;fillColor=none;align=left;verticalAlign=middle;spacingLeft=4;spacingRight=4;overflow=hidden;points=[[0,0.5],[1,0.5]];portConstraint=eastwest;rotatable=0;whiteSpace=wrap;html=1;" vertex="1" parent="IU0FdeUJs4AJ9rIBLfSX-18">
          <mxGeometry y="100" width="140" height="30" as="geometry" />
        </mxCell>
        <mxCell id="IU0FdeUJs4AJ9rIBLfSX-21" value="Città" style="text;strokeColor=none;fillColor=none;align=left;verticalAlign=middle;spacingLeft=4;spacingRight=4;overflow=hidden;points=[[0,0.5],[1,0.5]];portConstraint=eastwest;rotatable=0;whiteSpace=wrap;html=1;" vertex="1" parent="IU0FdeUJs4AJ9rIBLfSX-18">
          <mxGeometry y="130" width="140" height="30" as="geometry" />
        </mxCell>
        <mxCell id="IU0FdeUJs4AJ9rIBLfSX-31" value="APPARTENENZA" style="text;html=1;align=center;verticalAlign=middle;resizable=0;points=[];autosize=1;strokeColor=none;fillColor=none;" vertex="1" parent="1">
          <mxGeometry x="527.5" y="930" width="120" height="30" as="geometry" />
        </mxCell>
        <mxCell id="IU0FdeUJs4AJ9rIBLfSX-32" value="POSIZIONE" style="text;html=1;align=center;verticalAlign=middle;resizable=0;points=[];autosize=1;strokeColor=none;fillColor=none;" vertex="1" parent="1">
          <mxGeometry x="160" y="690" width="90" height="30" as="geometry" />
        </mxCell>
        <mxCell id="IU0FdeUJs4AJ9rIBLfSX-33" value="PARTECIPAZIONE" style="swimlane;fontStyle=0;childLayout=stackLayout;horizontal=1;startSize=30;horizontalStack=0;resizeParent=1;resizeParentMax=0;resizeLast=0;collapsible=1;marginBottom=0;whiteSpace=wrap;html=1;" vertex="1" parent="1">
          <mxGeometry x="760" y="770" width="140" height="60" as="geometry" />
        </mxCell>
        <mxCell id="IU0FdeUJs4AJ9rIBLfSX-34" value="Ruolo" style="text;strokeColor=none;fillColor=none;align=left;verticalAlign=middle;spacingLeft=4;spacingRight=4;overflow=hidden;points=[[0,0.5],[1,0.5]];portConstraint=eastwest;rotatable=0;whiteSpace=wrap;html=1;" vertex="1" parent="IU0FdeUJs4AJ9rIBLfSX-33">
          <mxGeometry y="30" width="140" height="30" as="geometry" />
        </mxCell>
        <mxCell id="IU0FdeUJs4AJ9rIBLfSX-39" value="GIOCATORE" style="swimlane;fontStyle=0;childLayout=stackLayout;horizontal=1;startSize=30;horizontalStack=0;resizeParent=1;resizeParentMax=0;resizeLast=0;collapsible=1;marginBottom=0;whiteSpace=wrap;html=1;" vertex="1" parent="1">
          <mxGeometry x="452.5" y="1030" width="140" height="120" as="geometry" />
        </mxCell>
        <mxCell id="IU0FdeUJs4AJ9rIBLfSX-40" value="&lt;b&gt;CF PK&lt;/b&gt;" style="text;strokeColor=none;fillColor=none;align=left;verticalAlign=middle;spacingLeft=4;spacingRight=4;overflow=hidden;points=[[0,0.5],[1,0.5]];portConstraint=eastwest;rotatable=0;whiteSpace=wrap;html=1;" vertex="1" parent="IU0FdeUJs4AJ9rIBLfSX-39">
          <mxGeometry y="30" width="140" height="30" as="geometry" />
        </mxCell>
        <mxCell id="IU0FdeUJs4AJ9rIBLfSX-41" value="Dati anagrafici" style="text;strokeColor=none;fillColor=none;align=left;verticalAlign=middle;spacingLeft=4;spacingRight=4;overflow=hidden;points=[[0,0.5],[1,0.5]];portConstraint=eastwest;rotatable=0;whiteSpace=wrap;html=1;" vertex="1" parent="IU0FdeUJs4AJ9rIBLfSX-39">
          <mxGeometry y="60" width="140" height="30" as="geometry" />
        </mxCell>
        <mxCell id="IU0FdeUJs4AJ9rIBLfSX-42" value="Ruolo" style="text;strokeColor=none;fillColor=none;align=left;verticalAlign=middle;spacingLeft=4;spacingRight=4;overflow=hidden;points=[[0,0.5],[1,0.5]];portConstraint=eastwest;rotatable=0;whiteSpace=wrap;html=1;" vertex="1" parent="IU0FdeUJs4AJ9rIBLfSX-39">
          <mxGeometry y="90" width="140" height="30" as="geometry" />
        </mxCell>
      </root>
    </mxGraphModel>
  </diagram>
</mxfile>
